<svg width="16" height="16" viewBox="0 0 16 16" fill="none" xmlns="http://www.w3.org/2000/svg">
<g clip-path="url(#clip0_2_175)">
<path d="M15.996 15.9999V15.9993H16V10.1313C16 7.26062 15.382 5.04928 12.026 5.04928C10.4127 5.04928 9.33003 5.93462 8.88803 6.77395H8.84137V5.31728H5.65936V15.9993H8.9727V10.7099C8.9727 9.31728 9.2367 7.97062 10.9614 7.97062C12.6607 7.97062 12.686 9.55995 12.686 10.7993V15.9999H15.996Z" fill="#F4F4FD"/>
<path d="M0.264038 5.31788H3.58137V15.9999H0.264038V5.31788Z" fill="#F4F4FD"/>
<path d="M1.92136 -8.86917e-05C0.860697 -8.86917e-05 3.05176e-05 0.860578 3.05176e-05 1.92124C3.05176e-05 2.98191 0.860697 3.86058 1.92136 3.86058C2.98203 3.86058 3.8427 2.98191 3.8427 1.92124C3.84203 0.860578 2.98136 -8.86917e-05 1.92136 -8.86917e-05V-8.86917e-05Z" fill="#F4F4FD"/>
</g>
<defs>
<clipPath id="clip0_2_175">
<rect width="16" height="16" fill="white"/>
</clipPath>
</defs>
</svg>
