<svg width="16" height="16" viewBox="0 0 16 16" fill="none" xmlns="http://www.w3.org/2000/svg">
<g clip-path="url(#clip0_2_165)">
<path d="M16 3.03891C15.405 3.29991 14.771 3.47291 14.11 3.55691C14.79 3.15091 15.309 2.51291 15.553 1.74391C14.919 2.12191 14.219 2.38891 13.473 2.53791C12.871 1.89691 12.013 1.49991 11.077 1.49991C9.26097 1.49991 7.79897 2.97391 7.79897 4.78091C7.79897 5.04091 7.82097 5.29091 7.87497 5.52891C5.14797 5.39591 2.73497 4.08891 1.11397 2.09791C0.830969 2.58891 0.66497 3.15091 0.66497 3.75591C0.66497 4.89191 1.24997 5.89891 2.12197 6.48191C1.59497 6.47191 1.07797 6.31891 0.639969 6.07791C0.639969 6.08791 0.639969 6.10091 0.639969 6.11391C0.639969 7.70791 1.77697 9.03191 3.26797 9.33691C3.00097 9.40991 2.70997 9.44491 2.40797 9.44491C2.19797 9.44491 1.98597 9.43291 1.78697 9.38891C2.21197 10.6879 3.41797 11.6429 4.85197 11.6739C3.73597 12.5469 2.31897 13.0729 0.78497 13.0729C0.51597 13.0729 0.257969 13.0609 -3.05176e-05 13.0279C1.45297 13.9649 3.17497 14.4999 5.03197 14.4999C11.068 14.4999 14.368 9.49991 14.368 5.16591C14.368 5.02091 14.363 4.88091 14.356 4.74191C15.007 4.27991 15.554 3.70291 16 3.03891Z" fill="#F4F4FD"/>
</g>
<defs>
<clipPath id="clip0_2_165">
<rect width="16" height="16" fill="white"/>
</clipPath>
</defs>
</svg>
